<?xml version="1.0" encoding="UTF-8" standalone="no"?>
<!DOCTYPE svg PUBLIC "-//W3C//DTD SVG 1.1//EN"
 "http://www.w3.org/Graphics/SVG/1.1/DTD/svg11.dtd">
<!-- Generated by graphviz version 2.38.0 (20140413.2041)
 -->
<!-- Title: G Pages: 1 -->
<svg width="1240pt" height="556pt"
 viewBox="0.00 0.00 1239.82 555.98" xmlns="http://www.w3.org/2000/svg" xmlns:xlink="http://www.w3.org/1999/xlink">
<g id="graph0" class="graph" transform="scale(1 1) rotate(0) translate(7.992 547.992)">
<title>G</title>
<polygon fill="#000000" stroke="none" points="-7.992,7.992 -7.992,-547.992 1231.83,-547.992 1231.83,7.992 -7.992,7.992"/>
<!-- kuejobs -->
<g id="node1" class="node"><title>kuejobs</title>
<ellipse fill="none" stroke="#c6c5fe" cx="42.8962" cy="-306" rx="42.7926" ry="18"/>
<text text-anchor="middle" x="42.8962" y="-302.3" font-family="Arial" font-size="14.00" fill="#c6c5fe">kuejobs</text>
</g>
<!-- lib/config -->
<g id="node2" class="node"><title>lib/config</title>
<ellipse fill="none" stroke="#cfffac" cx="220.896" cy="-18" rx="48.1917" ry="18"/>
<text text-anchor="middle" x="220.896" y="-14.3" font-family="Arial" font-size="14.00" fill="#cfffac">lib/config</text>
</g>
<!-- kuejobs&#45;&gt;lib/config -->
<g id="edge1" class="edge"><title>kuejobs&#45;&gt;lib/config</title>
<path fill="none" stroke="#757575" d="M41.3464,-287.777C38.5311,-245.744 37.1756,-136.638 90.8962,-72 110.028,-48.9799 140.722,-35.8492 167.482,-28.4173"/>
<polygon fill="#757575" stroke="#757575" points="168.699,-31.7183 177.513,-25.8392 166.956,-24.9387 168.699,-31.7183"/>
</g>
<!-- lib/message -->
<g id="node3" class="node"><title>lib/message</title>
<ellipse fill="none" stroke="#c6c5fe" cx="141.896" cy="-234" rx="61.1893" ry="18"/>
<text text-anchor="middle" x="141.896" y="-230.3" font-family="Arial" font-size="14.00" fill="#c6c5fe">lib/message</text>
</g>
<!-- kuejobs&#45;&gt;lib/message -->
<g id="edge2" class="edge"><title>kuejobs&#45;&gt;lib/message</title>
<path fill="none" stroke="#757575" d="M63.8915,-290.155C77.684,-280.403 95.9552,-267.484 111.347,-256.6"/>
<polygon fill="#757575" stroke="#757575" points="113.411,-259.428 119.555,-250.797 109.369,-253.712 113.411,-259.428"/>
</g>
<!-- lib/jobs -->
<g id="node8" class="node"><title>lib/jobs</title>
<ellipse fill="none" stroke="#c6c5fe" cx="139.896" cy="-90" rx="40.0939" ry="18"/>
<text text-anchor="middle" x="139.896" y="-86.3" font-family="Arial" font-size="14.00" fill="#c6c5fe">lib/jobs</text>
</g>
<!-- lib/message&#45;&gt;lib/jobs -->
<g id="edge5" class="edge"><title>lib/message&#45;&gt;lib/jobs</title>
<path fill="none" stroke="#757575" d="M124.167,-216.687C115.011,-207.028 104.76,-193.97 99.8962,-180 94.635,-164.89 94.8137,-159.171 99.8962,-144 103.504,-133.231 110.258,-122.902 117.204,-114.269"/>
<polygon fill="#757575" stroke="#757575" points="119.969,-116.42 123.825,-106.552 114.657,-111.862 119.969,-116.42"/>
</g>
<!-- models/message -->
<g id="node9" class="node"><title>models/message</title>
<ellipse fill="none" stroke="#c6c5fe" cx="191.896" cy="-162" rx="82.5854" ry="18"/>
<text text-anchor="middle" x="191.896" y="-158.3" font-family="Arial" font-size="14.00" fill="#c6c5fe">models/message</text>
</g>
<!-- lib/message&#45;&gt;models/message -->
<g id="edge6" class="edge"><title>lib/message&#45;&gt;models/message</title>
<path fill="none" stroke="#757575" d="M154,-216.055C159.87,-207.837 167.045,-197.791 173.568,-188.66"/>
<polygon fill="#757575" stroke="#757575" points="176.592,-190.447 179.557,-180.275 170.896,-186.378 176.592,-190.447"/>
</g>
<!-- lib/butils -->
<g id="node4" class="node"><title>lib/butils</title>
<ellipse fill="none" stroke="#cfffac" cx="617.896" cy="-162" rx="44.393" ry="18"/>
<text text-anchor="middle" x="617.896" y="-158.3" font-family="Arial" font-size="14.00" fill="#cfffac">lib/butils</text>
</g>
<!-- lib/cache -->
<g id="node5" class="node"><title>lib/cache</title>
<ellipse fill="none" stroke="#cfffac" cx="856.896" cy="-234" rx="47.3916" ry="18"/>
<text text-anchor="middle" x="856.896" y="-230.3" font-family="Arial" font-size="14.00" fill="#cfffac">lib/cache</text>
</g>
<!-- lib/group -->
<g id="node6" class="node"><title>lib/group</title>
<ellipse fill="none" stroke="#c6c5fe" cx="544.896" cy="-234" rx="46.2923" ry="18"/>
<text text-anchor="middle" x="544.896" y="-230.3" font-family="Arial" font-size="14.00" fill="#c6c5fe">lib/group</text>
</g>
<!-- models/pgclient -->
<g id="node7" class="node"><title>models/pgclient</title>
<ellipse fill="none" stroke="#c6c5fe" cx="907.896" cy="-162" rx="76.0865" ry="18"/>
<text text-anchor="middle" x="907.896" y="-158.3" font-family="Arial" font-size="14.00" fill="#c6c5fe">models/pgclient</text>
</g>
<!-- lib/group&#45;&gt;models/pgclient -->
<g id="edge3" class="edge"><title>lib/group&#45;&gt;models/pgclient</title>
<path fill="none" stroke="#757575" d="M585.433,-225.39C639.585,-215.197 738.508,-196.483 822.896,-180 829.003,-178.807 835.354,-177.556 841.711,-176.297"/>
<polygon fill="#757575" stroke="#757575" points="842.546,-179.7 851.672,-174.319 841.182,-172.834 842.546,-179.7"/>
</g>
<!-- models/pgclient&#45;&gt;lib/config -->
<g id="edge12" class="edge"><title>models/pgclient&#45;&gt;lib/config</title>
<path fill="none" stroke="#757575" d="M852.548,-149.56C722.419,-122.663 398.535,-55.7173 272.361,-29.6375"/>
<polygon fill="#757575" stroke="#757575" points="272.698,-26.1334 262.197,-27.5367 271.281,-32.9885 272.698,-26.1334"/>
</g>
<!-- lib/jobs&#45;&gt;lib/config -->
<g id="edge4" class="edge"><title>lib/jobs&#45;&gt;lib/config</title>
<path fill="none" stroke="#757575" d="M157.873,-73.4647C168.807,-64.015 182.954,-51.7896 195.073,-41.3165"/>
<polygon fill="#757575" stroke="#757575" points="197.412,-43.9207 202.69,-34.7339 192.835,-38.6244 197.412,-43.9207"/>
</g>
<!-- models/schema -->
<g id="node12" class="node"><title>models/schema</title>
<ellipse fill="none" stroke="#c6c5fe" cx="302.896" cy="-90" rx="76.8869" ry="18"/>
<text text-anchor="middle" x="302.896" y="-86.3" font-family="Arial" font-size="14.00" fill="#c6c5fe">models/schema</text>
</g>
<!-- models/message&#45;&gt;models/schema -->
<g id="edge11" class="edge"><title>models/message&#45;&gt;models/schema</title>
<path fill="none" stroke="#757575" d="M217.641,-144.765C232.771,-135.223 252.091,-123.04 268.512,-112.684"/>
<polygon fill="#757575" stroke="#757575" points="270.7,-115.442 277.291,-107.147 266.966,-109.521 270.7,-115.442"/>
</g>
<!-- lib/user -->
<g id="node10" class="node"><title>lib/user</title>
<ellipse fill="none" stroke="#c6c5fe" cx="730.896" cy="-234" rx="40.0939" ry="18"/>
<text text-anchor="middle" x="730.896" y="-230.3" font-family="Arial" font-size="14.00" fill="#c6c5fe">lib/user</text>
</g>
<!-- lib/user&#45;&gt;lib/butils -->
<g id="edge7" class="edge"><title>lib/user&#45;&gt;lib/butils</title>
<path fill="none" stroke="#757575" d="M708.301,-219.003C691.585,-208.648 668.587,-194.401 649.97,-182.869"/>
<polygon fill="#757575" stroke="#757575" points="651.574,-179.745 641.23,-177.454 647.887,-185.696 651.574,-179.745"/>
</g>
<!-- lib/user&#45;&gt;models/pgclient -->
<g id="edge8" class="edge"><title>lib/user&#45;&gt;models/pgclient</title>
<path fill="none" stroke="#757575" d="M760.124,-221.441C787.531,-210.602 828.974,-194.212 861.004,-181.545"/>
<polygon fill="#757575" stroke="#757575" points="862.604,-184.676 870.616,-177.744 860.029,-178.167 862.604,-184.676"/>
</g>
<!-- models/group_members -->
<g id="node11" class="node"><title>models/group_members</title>
<ellipse fill="none" stroke="#c6c5fe" cx="442.896" cy="-162" rx="112.38" ry="18"/>
<text text-anchor="middle" x="442.896" y="-158.3" font-family="Arial" font-size="14.00" fill="#c6c5fe">models/group_members</text>
</g>
<!-- models/group_members&#45;&gt;models/schema -->
<g id="edge9" class="edge"><title>models/group_members&#45;&gt;models/schema</title>
<path fill="none" stroke="#757575" d="M410.425,-144.765C390.442,-134.773 364.666,-121.885 343.36,-111.232"/>
<polygon fill="#757575" stroke="#757575" points="344.737,-108.007 334.228,-106.666 341.607,-114.268 344.737,-108.007"/>
</g>
<!-- models/schema&#45;&gt;lib/config -->
<g id="edge13" class="edge"><title>models/schema&#45;&gt;lib/config</title>
<path fill="none" stroke="#757575" d="M283.463,-72.411C272.612,-63.1475 258.943,-51.4787 247.151,-41.4125"/>
<polygon fill="#757575" stroke="#757575" points="249.223,-38.5796 239.345,-34.7489 244.678,-43.9035 249.223,-38.5796"/>
</g>
<!-- models/groups -->
<g id="node13" class="node"><title>models/groups</title>
<ellipse fill="none" stroke="#c6c5fe" cx="302.896" cy="-234" rx="72.5877" ry="18"/>
<text text-anchor="middle" x="302.896" y="-230.3" font-family="Arial" font-size="14.00" fill="#c6c5fe">models/groups</text>
</g>
<!-- models/groups&#45;&gt;models/schema -->
<g id="edge10" class="edge"><title>models/groups&#45;&gt;models/schema</title>
<path fill="none" stroke="#757575" d="M302.896,-215.871C302.896,-191.67 302.896,-147.211 302.896,-118.393"/>
<polygon fill="#757575" stroke="#757575" points="306.396,-118.189 302.896,-108.189 299.396,-118.189 306.396,-118.189"/>
</g>
<!-- models/users -->
<g id="node14" class="node"><title>models/users</title>
<ellipse fill="none" stroke="#c6c5fe" cx="746.896" cy="-162" rx="66.8882" ry="18"/>
<text text-anchor="middle" x="746.896" y="-158.3" font-family="Arial" font-size="14.00" fill="#c6c5fe">models/users</text>
</g>
<!-- models/users&#45;&gt;models/schema -->
<g id="edge14" class="edge"><title>models/users&#45;&gt;models/schema</title>
<path fill="none" stroke="#757575" d="M698.358,-149.558C689.258,-147.58 679.806,-145.636 670.896,-144 570.848,-125.634 454.526,-109.796 379.878,-100.333"/>
<polygon fill="#757575" stroke="#757575" points="379.987,-96.8189 369.628,-99.0403 379.111,-103.764 379.987,-96.8189"/>
</g>
<!-- routes/group/add -->
<g id="node15" class="node"><title>routes/group/add</title>
<ellipse fill="none" stroke="#c6c5fe" cx="440.896" cy="-306" rx="81.4863" ry="18"/>
<text text-anchor="middle" x="440.896" y="-302.3" font-family="Arial" font-size="14.00" fill="#c6c5fe">routes/group/add</text>
</g>
<!-- routes/group/add&#45;&gt;lib/butils -->
<g id="edge15" class="edge"><title>routes/group/add&#45;&gt;lib/butils</title>
<path fill="none" stroke="#757575" d="M446.331,-288.038C453.445,-268.299 467.684,-235.88 489.896,-216 503.052,-204.225 543.216,-188.525 575.084,-177.274"/>
<polygon fill="#757575" stroke="#757575" points="576.377,-180.53 584.668,-173.934 574.073,-173.92 576.377,-180.53"/>
</g>
<!-- routes/group/add&#45;&gt;lib/group -->
<g id="edge16" class="edge"><title>routes/group/add&#45;&gt;lib/group</title>
<path fill="none" stroke="#757575" d="M465.017,-288.765C479.7,-278.882 498.592,-266.166 514.318,-255.582"/>
<polygon fill="#757575" stroke="#757575" points="516.34,-258.44 522.681,-249.952 512.431,-252.633 516.34,-258.44"/>
</g>
<!-- routes/group/add&#45;&gt;lib/user -->
<g id="edge17" class="edge"><title>routes/group/add&#45;&gt;lib/user</title>
<path fill="none" stroke="#757575" d="M493.749,-292.242C548.887,-278.933 634.378,-258.297 686.247,-245.777"/>
<polygon fill="#757575" stroke="#757575" points="687.254,-249.135 696.154,-243.386 685.612,-242.33 687.254,-249.135"/>
</g>
<!-- routes/group/add&#45;&gt;models/groups -->
<g id="edge18" class="edge"><title>routes/group/add&#45;&gt;models/groups</title>
<path fill="none" stroke="#757575" d="M409.926,-289.291C389.99,-279.178 363.894,-265.941 342.461,-255.069"/>
<polygon fill="#757575" stroke="#757575" points="343.789,-251.818 333.288,-250.416 340.623,-258.061 343.789,-251.818"/>
</g>
<!-- routes/group/addMessage -->
<g id="node16" class="node"><title>routes/group/addMessage</title>
<ellipse fill="none" stroke="#c6c5fe" cx="222.896" cy="-306" rx="118.879" ry="18"/>
<text text-anchor="middle" x="222.896" y="-302.3" font-family="Arial" font-size="14.00" fill="#c6c5fe">routes/group/addMessage</text>
</g>
<!-- routes/group/addMessage&#45;&gt;lib/message -->
<g id="edge20" class="edge"><title>routes/group/addMessage&#45;&gt;lib/message</title>
<path fill="none" stroke="#757575" d="M203.288,-288.055C192.89,-279.069 179.961,-267.895 168.653,-258.123"/>
<polygon fill="#757575" stroke="#757575" points="170.62,-255.198 160.766,-251.307 166.043,-260.494 170.62,-255.198"/>
</g>
<!-- routes/group/addMessage&#45;&gt;lib/butils -->
<g id="edge19" class="edge"><title>routes/group/addMessage&#45;&gt;lib/butils</title>
<path fill="none" stroke="#757575" d="M275.319,-289.764C307.345,-279.985 348.923,-266.446 384.896,-252 419.208,-238.222 425.636,-229.906 459.896,-216 480.903,-207.473 535.403,-189.524 574.516,-176.884"/>
<polygon fill="#757575" stroke="#757575" points="575.655,-180.194 584.098,-173.794 573.507,-173.532 575.655,-180.194"/>
</g>
<!-- routes/group/addMessage&#45;&gt;models/groups -->
<g id="edge21" class="edge"><title>routes/group/addMessage&#45;&gt;models/groups</title>
<path fill="none" stroke="#757575" d="M242.262,-288.055C252.458,-279.134 265.117,-268.057 276.226,-258.336"/>
<polygon fill="#757575" stroke="#757575" points="278.764,-260.767 283.985,-251.547 274.154,-255.499 278.764,-260.767"/>
</g>
<!-- routes/group/index -->
<g id="node17" class="node"><title>routes/group/index</title>
<ellipse fill="none" stroke="#c6c5fe" cx="440.896" cy="-378" rx="87.1846" ry="18"/>
<text text-anchor="middle" x="440.896" y="-374.3" font-family="Arial" font-size="14.00" fill="#c6c5fe">routes/group/index</text>
</g>
<!-- routes/group/index&#45;&gt;routes/group/add -->
<g id="edge22" class="edge"><title>routes/group/index&#45;&gt;routes/group/add</title>
<path fill="none" stroke="#757575" d="M440.896,-359.697C440.896,-351.983 440.896,-342.712 440.896,-334.112"/>
<polygon fill="#757575" stroke="#757575" points="444.396,-334.104 440.896,-324.104 437.396,-334.104 444.396,-334.104"/>
</g>
<!-- routes/group/index&#45;&gt;routes/group/addMessage -->
<g id="edge23" class="edge"><title>routes/group/index&#45;&gt;routes/group/addMessage</title>
<path fill="none" stroke="#757575" d="M395.726,-362.496C362.554,-351.844 317.202,-337.282 281.279,-325.747"/>
<polygon fill="#757575" stroke="#757575" points="282.006,-322.304 271.415,-322.579 279.866,-328.969 282.006,-322.304"/>
</g>
<!-- routes/index -->
<g id="node18" class="node"><title>routes/index</title>
<ellipse fill="none" stroke="#c6c5fe" cx="626.896" cy="-450" rx="61.1893" ry="18"/>
<text text-anchor="middle" x="626.896" y="-446.3" font-family="Arial" font-size="14.00" fill="#c6c5fe">routes/index</text>
</g>
<!-- routes/index&#45;&gt;routes/group/index -->
<g id="edge24" class="edge"><title>routes/index&#45;&gt;routes/group/index</title>
<path fill="none" stroke="#757575" d="M590.592,-435.337C562.041,-424.592 521.961,-409.508 490.457,-397.652"/>
<polygon fill="#757575" stroke="#757575" points="491.57,-394.331 480.978,-394.085 489.105,-400.883 491.57,-394.331"/>
</g>
<!-- routes/middleware -->
<g id="node19" class="node"><title>routes/middleware</title>
<ellipse fill="none" stroke="#c6c5fe" cx="626.896" cy="-306" rx="86.3847" ry="18"/>
<text text-anchor="middle" x="626.896" y="-302.3" font-family="Arial" font-size="14.00" fill="#c6c5fe">routes/middleware</text>
</g>
<!-- routes/index&#45;&gt;routes/middleware -->
<g id="edge25" class="edge"><title>routes/index&#45;&gt;routes/middleware</title>
<path fill="none" stroke="#757575" d="M626.896,-431.871C626.896,-407.67 626.896,-363.211 626.896,-334.393"/>
<polygon fill="#757575" stroke="#757575" points="630.396,-334.189 626.896,-324.189 623.396,-334.189 630.396,-334.189"/>
</g>
<!-- routes/user/index -->
<g id="node20" class="node"><title>routes/user/index</title>
<ellipse fill="none" stroke="#c6c5fe" cx="951.896" cy="-378" rx="81.4863" ry="18"/>
<text text-anchor="middle" x="951.896" y="-374.3" font-family="Arial" font-size="14.00" fill="#c6c5fe">routes/user/index</text>
</g>
<!-- routes/index&#45;&gt;routes/user/index -->
<g id="edge26" class="edge"><title>routes/index&#45;&gt;routes/user/index</title>
<path fill="none" stroke="#757575" d="M674.851,-438.671C730.747,-426.632 823.433,-406.669 886.047,-393.183"/>
<polygon fill="#757575" stroke="#757575" points="886.788,-396.604 895.827,-391.076 885.314,-389.76 886.788,-396.604"/>
</g>
<!-- routes/middleware&#45;&gt;lib/butils -->
<g id="edge27" class="edge"><title>routes/middleware&#45;&gt;lib/butils</title>
<path fill="none" stroke="#757575" d="M625.811,-287.871C624.277,-263.67 621.459,-219.211 619.632,-190.393"/>
<polygon fill="#757575" stroke="#757575" points="623.111,-189.948 618.986,-180.189 616.125,-190.391 623.111,-189.948"/>
</g>
<!-- routes/middleware&#45;&gt;lib/cache -->
<g id="edge28" class="edge"><title>routes/middleware&#45;&gt;lib/cache</title>
<path fill="none" stroke="#757575" d="M673.717,-290.75C713.917,-278.515 771.513,-260.986 811.341,-248.864"/>
<polygon fill="#757575" stroke="#757575" points="812.516,-252.166 821.063,-245.906 810.477,-245.469 812.516,-252.166"/>
</g>
<!-- routes/user/contactsView -->
<g id="node21" class="node"><title>routes/user/contactsView</title>
<ellipse fill="none" stroke="#c6c5fe" cx="845.896" cy="-306" rx="114.28" ry="18"/>
<text text-anchor="middle" x="845.896" y="-302.3" font-family="Arial" font-size="14.00" fill="#c6c5fe">routes/user/contactsView</text>
</g>
<!-- routes/user/index&#45;&gt;routes/user/contactsView -->
<g id="edge30" class="edge"><title>routes/user/index&#45;&gt;routes/user/contactsView</title>
<path fill="none" stroke="#757575" d="M927.311,-360.765C913.201,-351.446 895.275,-339.609 879.838,-329.414"/>
<polygon fill="#757575" stroke="#757575" points="881.357,-326.223 871.084,-323.633 877.5,-332.065 881.357,-326.223"/>
</g>
<!-- routes/user/login -->
<g id="node22" class="node"><title>routes/user/login</title>
<ellipse fill="none" stroke="#c6c5fe" cx="1057.9" cy="-306" rx="79.0865" ry="18"/>
<text text-anchor="middle" x="1057.9" y="-302.3" font-family="Arial" font-size="14.00" fill="#c6c5fe">routes/user/login</text>
</g>
<!-- routes/user/index&#45;&gt;routes/user/login -->
<g id="edge31" class="edge"><title>routes/user/index&#45;&gt;routes/user/login</title>
<path fill="none" stroke="#757575" d="M976.481,-360.765C990.93,-351.223 1009.38,-339.04 1025.06,-328.684"/>
<polygon fill="#757575" stroke="#757575" points="1027.03,-331.579 1033.44,-323.147 1023.17,-325.737 1027.03,-331.579"/>
</g>
<!-- routes/user/sendotp -->
<g id="node23" class="node"><title>routes/user/sendotp</title>
<ellipse fill="none" stroke="#c6c5fe" cx="1130.9" cy="-234" rx="92.8835" ry="18"/>
<text text-anchor="middle" x="1130.9" y="-230.3" font-family="Arial" font-size="14.00" fill="#c6c5fe">routes/user/sendotp</text>
</g>
<!-- routes/user/index&#45;&gt;routes/user/sendotp -->
<g id="edge32" class="edge"><title>routes/user/index&#45;&gt;routes/user/sendotp</title>
<path fill="none" stroke="#757575" d="M1018.23,-367.582C1068.04,-358.993 1130.24,-344.502 1145.9,-324 1159.56,-306.1 1153.16,-280.248 1144.91,-261.014"/>
<polygon fill="#757575" stroke="#757575" points="1148.06,-259.485 1140.66,-251.902 1141.71,-262.444 1148.06,-259.485"/>
</g>
<!-- routes/user/contactsView&#45;&gt;lib/user -->
<g id="edge29" class="edge"><title>routes/user/contactsView&#45;&gt;lib/user</title>
<path fill="none" stroke="#757575" d="M818.643,-288.411C801.788,-278.151 780.085,-264.941 762.481,-254.225"/>
<polygon fill="#757575" stroke="#757575" points="764.058,-251.088 753.696,-248.878 760.418,-257.067 764.058,-251.088"/>
</g>
<!-- routes/user/login&#45;&gt;lib/cache -->
<g id="edge33" class="edge"><title>routes/user/login&#45;&gt;lib/cache</title>
<path fill="none" stroke="#757575" d="M1016.25,-290.496C982.444,-278.723 934.924,-262.174 900.583,-250.214"/>
<polygon fill="#757575" stroke="#757575" points="901.419,-246.799 890.824,-246.816 899.117,-253.41 901.419,-246.799"/>
</g>
<!-- routes/user/login&#45;&gt;models/pgclient -->
<g id="edge34" class="edge"><title>routes/user/login&#45;&gt;models/pgclient</title>
<path fill="none" stroke="#757575" d="M1040.4,-288.433C1013.89,-263.343 963.45,-215.591 933.027,-186.79"/>
<polygon fill="#757575" stroke="#757575" points="935.418,-184.235 925.75,-179.902 930.606,-189.318 935.418,-184.235"/>
</g>
<!-- routes/user/sendotp&#45;&gt;models/pgclient -->
<g id="edge35" class="edge"><title>routes/user/sendotp&#45;&gt;models/pgclient</title>
<path fill="none" stroke="#757575" d="M1084.42,-218.411C1048.56,-207.156 998.919,-191.572 961.407,-179.797"/>
<polygon fill="#757575" stroke="#757575" points="962.249,-176.393 951.66,-176.737 960.152,-183.072 962.249,-176.393"/>
</g>
<!-- try1 -->
<g id="node24" class="node"><title>try1</title>
<ellipse fill="none" stroke="#c6c5fe" cx="626.896" cy="-522" rx="27" ry="18"/>
<text text-anchor="middle" x="626.896" y="-518.3" font-family="Arial" font-size="14.00" fill="#c6c5fe">try1</text>
</g>
<!-- try1&#45;&gt;routes/index -->
<g id="edge36" class="edge"><title>try1&#45;&gt;routes/index</title>
<path fill="none" stroke="#757575" d="M626.896,-503.697C626.896,-495.983 626.896,-486.712 626.896,-478.112"/>
<polygon fill="#757575" stroke="#757575" points="630.396,-478.104 626.896,-468.104 623.396,-478.104 630.396,-478.104"/>
</g>
</g>
</svg>
